<?xml version="1.0" encoding="UTF-8"?>
<svg xmlns="http://www.w3.org/2000/svg" viewBox="0 0 200 200" role="img">
  <defs>
    <radialGradient id="bg" cx="50%" cy="50%" r="55%">
      <stop offset="0%" stop-color="hsl(135,45%,12%)"/>
      <stop offset="100%" stop-color="hsl(135,55%,4%)"/>
    </radialGradient>
    <filter id="glow"><feGaussianBlur stdDeviation="2"/></filter>
  </defs>
  <rect width="200" height="200" fill="url(#bg)"/>
  <g filter="url(#glow)" opacity="0.55"><circle cx="100" cy="100" r="30" fill="none" stroke="#ffbe0b" stroke-width="0.6" opacity="0.55"/><circle cx="100" cy="100" r="48" fill="none" stroke="#ffbe0b" stroke-width="0.6" opacity="0.45"/><circle cx="100" cy="100" r="66" fill="none" stroke="#ffbe0b" stroke-width="0.6" opacity="0.35"/></g>
  <polygon points="141.5,136.1 78.5,150.6 45.2,95.2 87.6,46.4 147.1,71.7" fill="none" stroke="#fb5607" stroke-width="2.2" opacity="0.85"/>
  <polygon points="141.5,136.1 78.5,150.6 45.2,95.2 87.6,46.4 147.1,71.7" fill="#b03c00" opacity="0.18"/>
  <circle cx="100" cy="100" r="6" fill="#ffbe0b"/><circle cx="100" cy="100" r="14" fill="none" stroke="#ffbe0b" stroke-width="1.2" opacity="0.8"/>
  <g><circle cx="91.6" cy="40.6" r="2" fill="#ffbe0b" opacity="0.7"/><circle cx="145.7" cy="51.0" r="2" fill="#ffbe0b" opacity="0.7"/><circle cx="173.8" cy="105.2" r="2" fill="#ffbe0b" opacity="0.7"/><circle cx="146.5" cy="166.4" r="2" fill="#ffbe0b" opacity="0.7"/><circle cx="75.7" cy="184.6" r="2" fill="#ffbe0b" opacity="0.7"/><circle cx="40.2" cy="125.4" r="2" fill="#ffbe0b" opacity="0.7"/><circle cx="36.4" cy="66.2" r="2" fill="#ffbe0b" opacity="0.7"/></g>
</svg>
